<svg width="105" height="24" viewBox="0 0 105 24" fill="none" xmlns="http://www.w3.org/2000/svg">
<path d="M6.35742 23L2.46094 9.71387L0.600586 9.4209V7.15039H7.79297V9.4209L6.00586 9.74316L7.77832 16.6279L8.15918 18.1221H8.24707L8.74512 16.6279L12.0703 7.15039H14.7656L17.9736 16.6865L18.501 18.3711H18.5889L19.1016 16.6865L21.0205 9.74316L19.1162 9.4209V7.15039H26.1621V9.4209L24.3457 9.72852L20.2881 23H17.0508L14.0186 14.4453L13.4033 12.3652H13.3154L12.7002 14.4453L9.59473 23H6.35742ZM34.8193 23.3076C33.3154 23.3076 32.0117 22.9756 30.9082 22.3115C29.8047 21.6377 28.9453 20.71 28.3301 19.5283C27.7246 18.3467 27.4219 16.9941 27.4219 15.4707V14.8555C27.4219 13.3125 27.7197 11.9404 28.3154 10.7393C28.9209 9.52832 29.7461 8.58105 30.791 7.89746C31.8457 7.2041 33.0518 6.85742 34.4092 6.85742C36.5479 6.85742 38.1738 7.49219 39.2871 8.76172C40.4102 10.0312 40.9717 11.7744 40.9717 13.9912V16.1006H31.2451L31.2158 16.1738C31.2744 17.4238 31.6357 18.4541 32.2998 19.2646C32.9639 20.0654 33.9111 20.4658 35.1416 20.4658C36.001 20.4658 36.7822 20.3486 37.4854 20.1143C38.1885 19.8799 38.8428 19.5479 39.4482 19.1182L40.5908 21.4326C39.9658 21.9697 39.1699 22.4189 38.2031 22.7803C37.2461 23.1318 36.1182 23.3076 34.8193 23.3076ZM31.3037 13.5078H37.4414V13.127C37.4414 12.0918 37.1973 11.252 36.709 10.6074C36.2305 9.96289 35.4785 9.64062 34.4531 9.64062C33.5547 9.64062 32.8271 10.002 32.2705 10.7246C31.7236 11.4473 31.3867 12.3506 31.2598 13.4346L31.3037 13.5078ZM43.2422 23V20.7441L45.4248 20.3047V9.86035L43.1104 9.4209V7.15039H48.8232L49.0137 9.14258L49.043 9.46484C49.8926 7.72656 51.123 6.85742 52.7344 6.85742C53.3398 6.85742 53.8818 6.93555 54.3604 7.0918L53.9355 10.5049L51.8701 10.3877C51.1963 10.3486 50.6396 10.4805 50.2002 10.7832C49.7607 11.0859 49.3994 11.5059 49.1162 12.043V20.3047L51.3135 20.7441V23H43.2422ZM63.0029 23.3076C61.499 23.3076 60.1953 22.9756 59.0918 22.3115C57.9883 21.6377 57.1289 20.71 56.5137 19.5283C55.9082 18.3467 55.6055 16.9941 55.6055 15.4707V14.8555C55.6055 13.3125 55.9033 11.9404 56.499 10.7393C57.1045 9.52832 57.9297 8.58105 58.9746 7.89746C60.0293 7.2041 61.2354 6.85742 62.5928 6.85742C64.7314 6.85742 66.3574 7.49219 67.4707 8.76172C68.5938 10.0312 69.1553 11.7744 69.1553 13.9912V16.1006H59.4287L59.3994 16.1738C59.458 17.4238 59.8193 18.4541 60.4834 19.2646C61.1475 20.0654 62.0947 20.4658 63.3252 20.4658C64.1846 20.4658 64.9658 20.3486 65.6689 20.1143C66.3721 19.8799 67.0264 19.5479 67.6318 19.1182L68.7744 21.4326C68.1494 21.9697 67.3535 22.4189 66.3867 22.7803C65.4297 23.1318 64.3018 23.3076 63.0029 23.3076ZM59.4873 13.5078H65.625V13.127C65.625 12.0918 65.3809 11.252 64.8926 10.6074C64.4141 9.96289 63.6621 9.64062 62.6367 9.64062C61.7383 9.64062 61.0107 10.002 60.4541 10.7246C59.9072 11.4473 59.5703 12.3506 59.4434 13.4346L59.4873 13.5078ZM76.5674 23.3076C74.9561 23.3076 73.7012 22.8926 72.8027 22.0625C71.9043 21.2324 71.4551 20.0898 71.4551 18.6348C71.4551 17.1406 72.0605 15.9297 73.2715 15.002C74.4922 14.0742 76.2402 13.6104 78.5156 13.6104H80.9326V12.2773C80.9326 11.4375 80.6787 10.7686 80.1709 10.2705C79.6729 9.77246 78.9453 9.52344 77.9883 9.52344C77.4414 9.52344 76.958 9.5918 76.5381 9.72852C76.1182 9.85547 75.7422 10.041 75.4102 10.2852L75.0879 12.4238H72.3633L72.334 8.5127C73.1055 7.99512 73.9697 7.58984 74.9268 7.29688C75.8936 7.00391 76.9629 6.85742 78.1348 6.85742C80.1465 6.85742 81.7285 7.33105 82.8809 8.27832C84.043 9.22559 84.624 10.5732 84.624 12.3213V19.3086C84.624 19.5234 84.624 19.7334 84.624 19.9385C84.6338 20.1338 84.6484 20.334 84.668 20.5391L86.2793 20.7441V23H81.46C81.3623 22.6582 81.2695 22.3262 81.1816 22.0039C81.1035 21.6816 81.0449 21.3594 81.0059 21.0371C80.4785 21.7012 79.8389 22.248 79.0869 22.6777C78.335 23.0977 77.4951 23.3076 76.5674 23.3076ZM77.4023 20.4512C78.1543 20.4512 78.8477 20.2803 79.4824 19.9385C80.127 19.5869 80.6104 19.1475 80.9326 18.6201V15.9688H78.4717C77.3682 15.9688 76.5332 16.2275 75.9668 16.7451C75.4102 17.2529 75.1318 17.8486 75.1318 18.5322C75.1318 19.8115 75.8887 20.4512 77.4023 20.4512ZM94.2773 23.3076C92.998 23.3076 91.9043 22.9854 90.9961 22.3408C90.0879 21.6963 89.3896 20.7979 88.9014 19.6455C88.4229 18.4834 88.1836 17.1309 88.1836 15.5879V15.2803C88.1836 13.6006 88.4229 12.1309 88.9014 10.8711C89.3896 9.60156 90.0879 8.61523 90.9961 7.91211C91.9043 7.20898 92.9932 6.85742 94.2627 6.85742C95.1709 6.85742 95.9619 7.0332 96.6357 7.38477C97.3193 7.72656 97.9053 8.21973 98.3936 8.86426V2.8584L96.0645 2.41895V0.148438H102.085V20.3047L104.282 20.7441V23H98.8916L98.5986 21.0811C97.5732 22.5654 96.1328 23.3076 94.2773 23.3076ZM95.3174 20.3926C96.0205 20.3926 96.626 20.2363 97.1338 19.9238C97.6416 19.6113 98.0615 19.167 98.3936 18.5908V11.6035C98.0713 11.0273 97.6514 10.5781 97.1338 10.2559C96.626 9.93359 96.0303 9.77246 95.3467 9.77246C94.1455 9.77246 93.2666 10.2803 92.71 11.2959C92.1533 12.3115 91.875 13.6396 91.875 15.2803V15.5879C91.875 17.0527 92.1436 18.2197 92.6807 19.0889C93.2275 19.958 94.1064 20.3926 95.3174 20.3926Z" fill="black"/>
</svg>
